<svg width="26" height="26" viewBox="0 0 26 26" fill="none" xmlns="http://www.w3.org/2000/svg">
<path d="M10.8146 0.701747C11.3958 0.248553 12.1315 0 12.8916 0C13.6517 0 14.3873 0.248553 14.9685 0.701747L24.6372 8.24883C25.3649 8.8147 25.7831 9.64826 25.7831 10.5282V23.5179C25.7831 24.133 25.519 24.7229 25.0489 25.1578C24.5788 25.5927 23.9413 25.8371 23.2764 25.8371H18.9793C18.3144 25.8371 17.6768 25.5927 17.2068 25.1578C16.7367 24.7229 16.4726 24.133 16.4726 23.5179V16.8919C16.4726 16.6283 16.3594 16.3755 16.1579 16.1891C15.9564 16.0027 15.6832 15.898 15.3983 15.898H10.3849C10.1 15.898 9.8267 16.0027 9.62523 16.1891C9.42376 16.3755 9.31058 16.6283 9.31058 16.8919V23.5179C9.31058 24.133 9.04648 24.7229 8.57638 25.1578C8.10629 25.5927 7.4687 25.8371 6.80388 25.8371H2.50669C2.17751 25.8371 1.85155 25.7771 1.54742 25.6605C1.2433 25.544 0.966962 25.3731 0.734194 25.1578C0.501426 24.9424 0.316784 24.6868 0.190811 24.4054C0.0648377 24.1241 0 23.8225 0 23.5179V10.5269C0 9.64826 0.41826 8.8147 1.14592 8.24751L10.8146 0.701747V0.701747Z" fill="#0053A9" fill-opacity="0.5"/>
</svg>
