<svg width="10" height="12" viewBox="0 0 10 12" fill="none" xmlns="http://www.w3.org/2000/svg">
<path d="M5 0.461914C3.76233 0.461914 2.57534 0.940033 1.70017 1.79109C0.825001 2.64215 0.333336 3.79643 0.333336 5C0.333336 8.06321 4.44584 11.5235 4.62084 11.671C4.7265 11.7589 4.86096 11.8072 5 11.8072C5.13904 11.8072 5.27351 11.7589 5.37917 11.671C5.58334 11.5235 9.66667 8.06321 9.66667 5C9.66667 3.79643 9.175 2.64215 8.29983 1.79109C7.42466 0.940033 6.23768 0.461914 5 0.461914ZM5 10.4741C3.7575 9.33955 1.5 6.89465 1.5 5C1.5 4.09732 1.86875 3.23161 2.52513 2.59332C3.18151 1.95502 4.07174 1.59644 5 1.59644C5.92826 1.59644 6.8185 1.95502 7.47488 2.59332C8.13125 3.23161 8.5 4.09732 8.5 5C8.5 6.89465 6.2425 9.34522 5 10.4741ZM5 2.73096C4.53851 2.73096 4.08739 2.86403 3.70367 3.11336C3.31996 3.36269 3.02089 3.71706 2.84428 4.13168C2.66768 4.54629 2.62147 5.00252 2.7115 5.44267C2.80154 5.88282 3.02376 6.28713 3.35009 6.60446C3.67641 6.92179 4.09217 7.13789 4.54479 7.22545C4.99741 7.313 5.46657 7.26806 5.89293 7.09632C6.31929 6.92459 6.68371 6.63376 6.9401 6.26061C7.19649 5.88747 7.33333 5.44878 7.33333 5C7.33333 4.39821 7.0875 3.82107 6.64992 3.39555C6.21233 2.97002 5.61884 2.73096 5 2.73096ZM5 6.13452C4.76926 6.13452 4.54369 6.06798 4.35184 5.94332C4.15998 5.81866 4.01044 5.64147 3.92214 5.43416C3.83384 5.22686 3.81074 4.99874 3.85575 4.77867C3.90077 4.55859 4.01188 4.35644 4.17504 4.19777C4.33821 4.03911 4.54609 3.93105 4.7724 3.88728C4.99871 3.8435 5.23329 3.86597 5.44647 3.95184C5.65965 4.03771 5.84185 4.18312 5.97005 4.36969C6.09824 4.55627 6.16667 4.77561 6.16667 5C6.16667 5.3009 6.04375 5.58947 5.82496 5.80223C5.60617 6.01499 5.30942 6.13452 5 6.13452Z" fill="#00274E"/>
</svg>
