<svg width="23" height="26" viewBox="0 0 23 26" fill="none" xmlns="http://www.w3.org/2000/svg">
<path d="M11.1731 12.4457C12.9728 12.4457 14.5312 11.8325 15.8045 10.6226C17.0778 9.41285 17.7233 7.93268 17.7233 6.22267C17.7233 4.51325 17.0778 3.03288 15.8043 1.82276C14.5308 0.613239 12.9726 0 11.1731 0C9.37314 0 7.81514 0.613239 6.54182 1.82296C5.26849 3.03268 4.6228 4.51305 4.6228 6.22267C4.6228 7.93268 5.26849 9.41305 6.54203 10.6228C7.81556 11.8323 9.37376 12.4457 11.1731 12.4457Z" fill="#0053A9" fill-opacity="0.5"/>
<path d="M22.6342 19.8672C22.5975 19.3637 22.5232 18.8145 22.4138 18.2346C22.3034 17.6504 22.1613 17.098 21.9912 16.5932C21.8154 16.0714 21.5764 15.5562 21.281 15.0624C20.9743 14.5499 20.6141 14.1036 20.2099 13.7363C19.7873 13.3522 19.2698 13.0433 18.6714 12.818C18.0751 12.5938 17.4143 12.4803 16.7074 12.4803C16.4298 12.4803 16.1613 12.5885 15.6428 12.9092C15.3237 13.1069 14.9504 13.3356 14.5338 13.5885C14.1776 13.8042 13.695 14.0062 13.0989 14.1891C12.5173 14.3679 11.9268 14.4586 11.344 14.4586C10.7611 14.4586 10.1708 14.3679 9.58865 14.1891C8.99317 14.0064 8.51056 13.8044 8.15473 13.5887C7.74204 13.3382 7.36857 13.1095 7.04469 12.909C6.52681 12.5883 6.25812 12.4801 5.98051 12.4801C5.2734 12.4801 4.61277 12.5938 4.01667 12.8182C3.41871 13.0431 2.90104 13.352 2.47798 13.7365C2.07401 14.104 1.71361 14.5501 1.40736 15.0624C1.11211 15.5562 0.873091 16.0712 0.697145 16.5934C0.527216 17.0982 0.385089 17.6504 0.274708 18.2346C0.165364 18.8138 0.0910853 19.3631 0.0543607 19.8678C0.0182586 20.3621 0 20.8752 0 21.3935C0 22.7421 0.451277 23.834 1.34117 24.6392C2.22007 25.4338 3.38302 25.8369 4.79723 25.8369H17.8919C19.3061 25.8369 20.4687 25.434 21.3478 24.6392C22.2379 23.8346 22.6892 22.7425 22.6892 21.3933C22.6889 20.8727 22.6705 20.3592 22.6342 19.8672Z" fill="#0053A9" fill-opacity="0.5"/>
</svg>
